# xmcd
#
# Track frame offsets: 
#        150
#        34106
#        64095
#        81378
#        101672
#        122227
#        165111
#        181316
#        201892
#        221691
#
# Disc length: 4043 seconds
#
# Revision: 1
# Processed by: cddbd v1.5.2PL0 Copyright (c) Steve Scherf et al.
# Submitted via: ExactAudioCopy v1.0b3
#
DISCID=880fc90a
DTITLE=Dead Meadow - Dead Meadow
DYEAR=2006
DGENRE=Metal
TTITLE0=Sleepy Silver Door
TTITLE1=Indian Bones
TTITLE2=Dragonfly
TTITLE3=Lady
TTITLE4=Green Sky Green Lake
TTITLE5=Beyond The Fields We Know
TTITLE6=At The Edge Of The Wood
TTITLE7=Rocky Mountain High
TTITLE8=Bonus Instrumental Track
TTITLE9=track title 10
EXTD=
EXTT0=
EXTT1=
EXTT2=
EXTT3=
EXTT4=
EXTT5=
EXTT6=
EXTT7=
EXTT8=
EXTT9=
PLAYORDER=
